# xmcd
#
# Track frame offsets:
#	150
#	11121
#	27751
#	43629
#	55357
#	67313
#	78997
#	88850
#	98274
#	107859
#	117177
#	129496
#
# Disc length: 1920 seconds
#
# Revision: 0
# Processed by: cddbd v1.5.1PL0 Copyright (c) Steve Scherf et al.
# Submitted via: dBpowerAMP V4.0
#
DISCID=9b077e0c
DTITLE=Various Artist - Classic Country Christmas Volume Three
DYEAR=2003
DGENRE=Country/Christma
TTITLE0=Away In A Manger - Reba McEntire
TTITLE1=Tennessee Christmas - Alabama
TTITLE2=The Greatest Gift Of All - Lee Greenwood
TTITLE3=Santa Claus Is Coming To Town - Vince Gill
TTITLE4=Winter Wonderland - Barbara Mandrell
TTITLE5=Here Comes Santa Claus - Dwight Yoakam
TTITLE6=Jingle Bell Rock - Bobby Helms
TTITLE7=Rockin'  Around The Christmas Tree - Brenda Lee
TTITLE8=Country Christmas - Loretta Lynn
TTITLE9=Old Toy Trains - Roger Miller
TTITLE10=The Carols Those Kids Used To Sing - The Statler Brothers
TTITLE11=Silent Night - Jim Reeves
EXTD=
EXTT0=
EXTT1=
EXTT2=
EXTT3=
EXTT4=
EXTT5=
EXTT6=
EXTT7=
EXTT8=
EXTT9=
EXTT10=
EXTT11=
PLAYORDER=
